<?xml version="1.0" encoding="UTF-8"?><svg id="Layer_1" xmlns="http://www.w3.org/2000/svg" viewBox="0 0 406.92 303.85"><defs><style>.cls-1{fill:#e81010;stroke-width:0px;}</style></defs><path class="cls-1" d="M92.43,108.93l-30.75,71.11h-30.58l30.75-71.11h30.58ZM121.25,164.32h-34.42l12.06-28.13h10.13l-34.07-78.28h30.58l52.94,122.13h-30.58l-6.64-15.72Z"/><path class="cls-1" d="M172.45,180.05V57.92h89.11v25.86h-61.15v70.41h61.15v25.86h-89.11ZM245.83,105.96v25.86h-32.85l10.13-25.86h22.71Z"/><path class="cls-1" d="M347.87,132.52h-21.49l10.13-25.86h39.31v53.29c-5.71,6.52-12.58,11.68-20.62,15.46-8.04,3.79-16.77,5.68-26.21,5.68-8.62,0-16.69-1.63-24.2-4.89-7.51-3.26-14.1-7.69-19.74-13.28-5.65-5.59-10.11-12.17-13.37-19.74-3.26-7.57-4.89-15.67-4.89-24.29s1.63-16.71,4.89-24.29c3.26-7.57,7.71-14.15,13.37-19.74,5.65-5.59,12.23-10.02,19.74-13.28,7.51-3.26,15.58-4.89,24.2-4.89,9.43,0,18.17,1.89,26.21,5.68,8.04,3.79,14.91,8.94,20.62,15.46l-20.27,19.39c-3.38-4.08-7.22-7.13-11.53-9.17-4.31-2.04-8.71-3.15-13.19-3.32-4.49-.17-8.91.5-13.28,2.01-4.37,1.51-8.24,3.76-11.62,6.73-3.38,2.97-6.09,6.61-8.12,10.92-2.04,4.31-3.06,9.15-3.06,14.5,0,6.88,1.72,12.93,5.15,18.17,3.43,5.24,7.78,9.26,13.02,12.06,5.24,2.8,10.98,4.17,17.21,4.11,6.23-.06,12.14-1.95,17.73-5.68v-15.03Z"/><path class="cls-1" d="M60.67,240.89l6.41,2.22c-1.11,3.54-3.17,6.42-6.17,8.67s-6.65,3.36-10.92,3.36c-5.33,0-9.85-1.83-13.57-5.5-3.72-3.67-5.58-8.61-5.58-14.84,0-5.8,1.79-10.61,5.38-14.41,3.59-3.8,7.86-5.7,12.82-5.7,5.75,0,10.24,1.81,13.46,5.42,3.22,3.61,4.83,8.46,4.83,14.52,0,.95-.05,1.74-.16,2.37h-28.65c.05,3.38,1.17,6.15,3.36,8.31,2.19,2.16,4.89,3.25,8.11,3.25,5.43,0,9-2.56,10.69-7.68ZM38.74,231h20.82c-.11-2.85-1.06-5.18-2.85-7s-4.33-2.73-7.6-2.73c-2.96,0-5.38.96-7.28,2.89-1.9,1.93-2.93,4.21-3.09,6.85Z"/><path class="cls-1" d="M84.25,231.95v22h-7.44v-38.07h7.28v5.46c2.53-4.38,6.44-6.57,11.71-6.57,4.38,0,7.74,1.4,10.09,4.19,2.35,2.8,3.52,6.41,3.52,10.84v24.14h-7.44v-22.87c0-6.38-2.96-9.58-8.86-9.58-2.8,0-4.97.99-6.53,2.97-1.56,1.98-2.33,4.47-2.33,7.48Z"/><path class="cls-1" d="M118.52,256.01l7.2-1.66c.26,2.69,1.35,4.92,3.25,6.69,1.9,1.77,4.27,2.65,7.12,2.65,7.76,0,11.63-4.12,11.63-12.35v-5.46c-.95,1.85-2.44,3.35-4.47,4.51-2.03,1.16-4.42,1.74-7.16,1.74-5.07,0-9.25-1.73-12.54-5.18-3.3-3.46-4.95-7.88-4.95-13.26s1.63-9.62,4.91-13.18c3.27-3.56,7.47-5.34,12.58-5.34,5.8,0,9.71,2.01,11.71,6.02v-5.3h7.36v35.22c0,2.53-.33,4.89-.99,7.08-.66,2.19-1.7,4.21-3.13,6.05-1.42,1.85-3.42,3.3-5.98,4.35-2.56,1.05-5.55,1.58-8.98,1.58-4.7,0-8.68-1.33-11.95-4-3.27-2.67-5.14-6.05-5.62-10.17ZM137.2,245.88c3.22,0,5.83-1.12,7.83-3.36,2-2.24,3.01-5.18,3.01-8.83s-1-6.58-3.01-8.83c-2.01-2.24-4.62-3.36-7.83-3.36s-5.92,1.11-7.95,3.32c-2.03,2.22-3.05,5.17-3.05,8.86s.99,6.71,2.97,8.9c1.98,2.19,4.66,3.28,8.03,3.28Z"/><path class="cls-1" d="M166.92,205.24c-1.03-1.03-1.54-2.28-1.54-3.76s.51-2.74,1.54-3.8c1.03-1.05,2.28-1.58,3.76-1.58s2.74.51,3.8,1.54c1.06,1.03,1.58,2.31,1.58,3.84s-.53,2.73-1.58,3.76-2.32,1.54-3.8,1.54-2.73-.51-3.76-1.54ZM174.4,253.95h-7.36v-38.07h7.36v38.07Z"/><path class="cls-1" d="M194.5,231.95v22h-7.44v-38.07h7.28v5.46c2.53-4.38,6.44-6.57,11.71-6.57,4.38,0,7.74,1.4,10.09,4.19,2.35,2.8,3.52,6.41,3.52,10.84v24.14h-7.44v-22.87c0-6.38-2.96-9.58-8.86-9.58-2.8,0-4.97.99-6.53,2.97-1.56,1.98-2.33,4.47-2.33,7.48Z"/><path class="cls-1" d="M258.29,240.89l6.41,2.22c-1.11,3.54-3.17,6.42-6.17,8.67s-6.65,3.36-10.92,3.36c-5.33,0-9.85-1.83-13.57-5.5-3.72-3.67-5.58-8.61-5.58-14.84,0-5.8,1.79-10.61,5.38-14.41,3.59-3.8,7.86-5.7,12.82-5.7,5.75,0,10.24,1.81,13.46,5.42,3.22,3.61,4.83,8.46,4.83,14.52,0,.95-.05,1.74-.16,2.37h-28.65c.05,3.38,1.17,6.15,3.36,8.31,2.19,2.16,4.89,3.25,8.11,3.25,5.43,0,9-2.56,10.69-7.68ZM236.37,231h20.82c-.11-2.85-1.06-5.18-2.85-7s-4.33-2.73-7.6-2.73c-2.96,0-5.38.96-7.28,2.89-1.9,1.93-2.93,4.21-3.09,6.85Z"/><path class="cls-1" d="M301.19,240.89l6.41,2.22c-1.11,3.54-3.17,6.42-6.17,8.67-3.01,2.24-6.65,3.36-10.92,3.36-5.33,0-9.85-1.83-13.57-5.5-3.72-3.67-5.58-8.61-5.58-14.84,0-5.8,1.79-10.61,5.38-14.41,3.59-3.8,7.86-5.7,12.82-5.7,5.75,0,10.24,1.81,13.45,5.42s4.83,8.46,4.83,14.52c0,.95-.05,1.74-.16,2.37h-28.65c.05,3.38,1.17,6.15,3.36,8.31,2.19,2.16,4.89,3.25,8.11,3.25,5.43,0,9-2.56,10.68-7.68ZM279.27,231h20.82c-.11-2.85-1.06-5.18-2.85-7-1.79-1.82-4.33-2.73-7.6-2.73-2.96,0-5.38.96-7.28,2.89-1.9,1.93-2.93,4.21-3.09,6.85Z"/><path class="cls-1" d="M338.47,215.48v7.92c-1.11-.16-2.19-.24-3.25-.24-6.96,0-10.45,3.91-10.45,11.71v19.07h-7.44v-38.07h7.28v6.65c2.32-4.85,6.12-7.28,11.4-7.28.84,0,1.66.08,2.45.24Z"/><path class="cls-1" d="M342.82,244.06l6.73-2.37c.26,2.06,1.16,3.76,2.69,5.1,1.53,1.35,3.59,2.02,6.17,2.02,2,0,3.59-.49,4.75-1.46,1.16-.98,1.74-2.18,1.74-3.6,0-2.53-1.64-4.17-4.91-4.91l-6.49-1.42c-2.96-.63-5.28-1.9-6.96-3.8-1.69-1.9-2.53-4.19-2.53-6.89,0-3.27,1.33-6.09,4-8.47,2.66-2.37,5.84-3.56,9.54-3.56,2.43,0,4.59.36,6.49,1.07,1.9.71,3.38,1.65,4.43,2.81,1.05,1.16,1.85,2.24,2.37,3.25.53,1,.92,2.03,1.19,3.09l-6.57,2.45c-.11-.63-.29-1.25-.55-1.86-.26-.61-.67-1.28-1.23-2.02-.55-.74-1.36-1.33-2.41-1.78s-2.29-.67-3.72-.67c-1.85,0-3.36.5-4.55,1.5-1.19,1-1.78,2.19-1.78,3.56,0,2.43,1.45,3.96,4.35,4.59l6.17,1.35c3.38.74,5.98,2.1,7.8,4.08s2.73,4.39,2.73,7.24c0,3.01-1.23,5.73-3.68,8.15-2.45,2.43-5.87,3.64-10.25,3.64-4.7,0-8.36-1.17-11-3.52-2.64-2.35-4.14-4.87-4.51-7.56Z"/></svg>